<?xml version="1.0" encoding="utf-8"?>
<!-- Generator: Adobe Illustrator 24.0.1, SVG Export Plug-In . SVG Version: 6.00 Build 0)  -->
<svg version="1.1" id="Layer_1" xmlns="http://www.w3.org/2000/svg" xmlns:xlink="http://www.w3.org/1999/xlink" x="0px" y="0px"
	 viewBox="0 0 714.4 136.1" style="enable-background:new 0 0 714.4 136.1;" xml:space="preserve">
<style type="text/css">
	.st0{fill:#E9F0F4;}
</style>
<path id="Path_82" class="st0" d="M39.4,62.4c2-2.3,4.4-4.2,7.1-5.6c2.9-1.4,6.1-2.1,9.3-2.1c3.4,0,6.7,0.8,9.7,2.2
	c2.9,1.3,5.5,3.2,7.5,5.7L91.8,41c-2.1-2.1-4.5-3.9-7-5.4c-2.8-1.7-5.8-3.1-8.9-4.2c-3.3-1.1-6.7-2-10.1-2.7c-3.5-0.7-7-1-10.6-1
	c-7.4-0.1-14.7,1.2-21.6,3.7c-6.5,2.3-12.5,5.9-17.6,10.5c-5,4.6-9,10.2-11.7,16.5c-5.7,14-5.7,29.7,0,43.7C7,108.4,11,114,16,118.7
	c5.1,4.6,11.1,8.2,17.6,10.4c7,2.4,14.4,3.6,21.8,3.6c7,0,13.9-1.1,20.6-3.4c5.9-1.9,11.3-5.1,15.8-9.3l-18-22
	c-2.1,2.5-4.8,4.3-7.8,5.4c-3.1,1.2-6.4,1.9-9.8,1.9c-3.3,0.1-6.6-0.6-9.6-2c-2.8-1.3-5.3-3.1-7.3-5.4c-2.1-2.3-3.7-5.1-4.6-8
	c-1.1-3.1-1.6-6.4-1.6-9.7c0-3.3,0.5-6.6,1.7-9.7C35.8,67.5,37.3,64.8,39.4,62.4z M176.9,40.3c-3.7-4.4-8.5-7.7-13.9-9.5
	c-6.8-2.2-13.9-3.3-21.1-3.1c-8.1,0-16.1,1.4-23.6,4.2c-7.6,2.7-14.5,6.9-20.3,12.5l16.4,17.6c3.3-2.9,7-5.3,11-7.1
	c4.2-1.9,8.7-3,13.4-3c4.5-0.1,8.9,1.1,12.7,3.5c3.5,2.4,5.4,6.5,5.1,10.8v1.6c-7.3,0-14.7,0.4-22,1.2c-7,0.7-13.9,2.3-20.5,4.7
	c-5.7,2.1-10.9,5.6-15,10.1c-4,4.8-6.1,10.9-5.8,17.2c-0.2,5.1,1,10.1,3.4,14.6c2.1,3.8,5,7,8.6,9.5c3.5,2.4,7.4,4.1,11.6,5.1
	c4,1,8.1,1.6,12.3,1.6c5.7,0,11.3-1.1,16.5-3.4c4.7-1.9,8.7-5.2,11.4-9.5h0.6v10.5h29.7V79.7c0.1-7.8-0.7-15.6-2.5-23.2
	C183.4,50.6,180.7,45,176.9,40.3L176.9,40.3z M157.5,89.8c0.3,5.4-1.6,10.7-5.2,14.7c-4.1,3.8-9.6,5.8-15.1,5.4
	c-1.7,0-3.3-0.2-4.9-0.5c-1.6-0.3-3.1-0.9-4.5-1.7c-1.3-0.8-2.4-1.9-3.3-3.2c-0.9-1.4-1.3-3.1-1.3-4.8c-0.1-2.6,0.9-5.2,2.8-7
	c2-1.9,4.4-3.3,7-4.1c3.2-1,6.4-1.6,9.7-1.9c3.6-0.3,7.2-0.5,10.8-0.5h4.2L157.5,89.8z M235.3,52.8c2.6-1.2,5.5-1.8,8.4-1.8
	c3.9,0,7.8,0.9,11.3,2.6c3.4,1.6,6.5,3.8,9.3,6.3l17.8-18.3c-5.1-4.8-11.2-8.3-17.9-10.4c-7-2.3-14.3-3.5-21.6-3.5
	c-4.8,0-9.7,0.6-14.3,1.9c-4.7,1.2-9.1,3.2-13.2,5.8c-4,2.6-7.3,6.1-9.7,10.2c-2.6,4.6-3.9,9.8-3.8,15.1c-0.1,4.1,0.8,8.2,2.6,11.9
	c1.6,3.2,3.9,6,6.6,8.3c2.8,2.3,5.9,4.1,9.2,5.3c3.3,1.3,6.8,2.4,10.3,3.2c5.1,1.1,10,2.6,14.8,4.5c2.9,1,4.8,3.7,4.8,6.7
	c0.2,2.8-1.3,5.4-3.9,6.6c-2.4,1.2-5.1,1.8-7.8,1.9c-4.7,0-9.3-1.1-13.5-3.2c-4-2-7.6-4.6-10.7-7.9l-18.2,19.2
	c5.5,5.2,12.1,9.1,19.3,11.4c7.6,2.6,15.6,3.9,23.6,3.9c5.1,0,10.1-0.6,15-1.8c4.8-1.1,9.4-3.1,13.6-5.7c8.8-5.7,14-15.6,13.5-26.1
	c0.1-4.3-0.8-8.5-2.8-12.3c-1.8-3.4-4.3-6.3-7.3-8.7c-3.1-2.4-6.5-4.3-10.2-5.7c-3.6-1.4-7.4-2.5-11.2-3.4c-4.7-1-9.3-2.3-13.7-4
	c-2.6-0.8-4.3-3.2-4.2-5.9C231.3,56.3,232.8,53.8,235.3,52.8L235.3,52.8z M480.9,40.8c-3-3.9-6.7-7-11.1-9.2
	c-5.3-2.5-11.1-3.8-16.9-3.6c-6.2-0.2-12.3,1.4-17.6,4.6c-4.4,2.6-8.1,6.2-10.7,10.6h-0.4V10.1h-32.4v119.3h32.4V76.1
	c-0.2-5.3,1.4-10.6,4.5-14.9c3.1-4.1,8-6.3,13-6c2.5-0.1,4.9,0.5,7.1,1.7c1.8,1.1,3.4,2.7,4.5,4.5c1.2,2,1.9,4.3,2.3,6.6
	c0.4,2.6,0.6,5.3,0.6,7.9v53.4l32.6,0V68.5c0-4.9-0.6-9.9-1.9-14.6C485.9,49.1,483.8,44.7,480.9,40.8L480.9,40.8z M562.1,84
	c0.1,5.3-1.4,10.5-4.4,14.8c-2.9,4.2-7.9,6.6-13,6.3c-2.5,0.1-5.1-0.5-7.3-1.7c-1.9-1.1-3.4-2.7-4.5-4.7c-1.2-2.1-1.9-4.4-2.3-6.7
	c-0.4-2.6-0.6-5.3-0.6-7.9V30.8h-32.6v60.9c0,5,0.6,9.9,1.9,14.7c1.2,4.6,3.3,9,6.1,12.9c3,3.9,6.7,7,11.1,9.2
	c5.2,2.5,10.9,3.7,16.7,3.6c3.3,0,6.6-0.5,9.8-1.4c3-0.9,5.8-2.1,8.5-3.6c2.5-1.4,4.7-3.1,6.7-5.1c1.8-1.9,3.4-4,4.6-6.3h0.4v13.7
	l31.3,0V30.8h-32.4L562.1,84z M711.2,60.1c-2-6-5.2-11.6-9.3-16.5c-8.4-10-20.9-15.7-33.9-15.5c-6.4-0.2-12.7,1.2-18.4,4.2
	c-4.4,2.3-8.4,5.4-11.7,9.1h-0.4V0h-32.4v129.3h29.8v-12.9h0.4c3.3,5.1,8,9.1,13.5,11.6c5.9,2.7,12.2,4.1,18.7,4.1
	c6.8,0.1,13.6-1.4,19.8-4.3C693,125,698,121,702,116.2c4.1-4.9,7.2-10.6,9.2-16.7c2.1-6.4,3.2-13.1,3.2-19.8
	C714.4,73,713.3,66.4,711.2,60.1z M681.7,89.1c-0.9,3-2.4,5.8-4.5,8.2c-6.8,7.8-17.9,10.1-27.3,5.7c-2.8-1.4-5.4-3.4-7.4-5.7
	c-2.1-2.4-3.7-5.1-4.7-8.1c-2.2-6-2.2-12.6,0-18.6c1.1-3,2.7-5.7,4.7-8.1c2.1-2.4,4.6-4.3,7.4-5.7c3.1-1.5,6.5-2.2,9.9-2.2
	c3.5-0.1,6.9,0.7,10.1,2.2c5.6,2.7,9.9,7.7,11.7,13.6c1,3,1.5,6.1,1.5,9.3C683.2,82.9,682.7,86.1,681.7,89.1z M372.1,40.3
	c-3.7-4.4-8.5-7.7-14-9.5c-6.8-2.2-13.9-3.3-21.1-3.1c-8.1,0-16.1,1.4-23.6,4.2c-7.6,2.7-14.5,6.9-20.3,12.5l16.4,17.6
	c3.3-2.9,7-5.3,11-7.1c4.2-1.9,8.7-3,13.4-3c4.5-0.1,8.9,1.1,12.7,3.5c3.5,2.4,5.4,6.5,5.1,10.8v1.6c-7.3,0-14.7,0.4-22,1.2
	c-7,0.7-13.9,2.3-20.5,4.7c-5.7,2.1-10.9,5.6-15,10.1c-4,4.8-6.1,10.9-5.8,17.2c-0.2,5.1,1,10.1,3.4,14.6c2.1,3.8,5,7,8.6,9.5
	c3.5,2.4,7.4,4.1,11.6,5.1c4,1,8.1,1.6,12.3,1.6c5.7,0.1,11.3-1.1,16.5-3.4c4.7-1.9,12-8.7,12-8.7c2.6-8.4,11.5-13.1,19.8-10.5
	c4.4,1.4,8,4.6,9.8,8.8V79.7c0.1-7.8-0.7-15.6-2.5-23.2C378.6,50.6,375.9,45,372.1,40.3z M352.8,89.8c0.3,5.4-1.6,10.7-5.2,14.7
	c-4.1,3.8-9.6,5.8-15.1,5.4c-1.7,0-3.3-0.2-4.9-0.5c-1.6-0.3-3.2-0.9-4.6-1.7c-1.3-0.8-2.4-1.9-3.3-3.2c-0.9-1.4-1.3-3.1-1.3-4.8
	c-0.1-2.6,0.9-5.2,2.8-7c2-1.9,4.4-3.3,7-4.1c3.2-1,6.4-1.6,9.7-1.9c3.6-0.3,7.2-0.5,10.8-0.5h4.2L352.8,89.8z M367.9,112.6
	c-6.5,0-11.8,5.3-11.8,11.8c0,6.5,5.3,11.8,11.8,11.8c6.5,0,11.7-5.3,11.8-11.7C379.6,117.9,374.4,112.7,367.9,112.6L367.9,112.6z"
	/>
</svg>
