<svg xmlns="http://www.w3.org/2000/svg" width="714.416" height="136.149" viewBox="0 0 714.416 136.149">
  <path id="Path_82" data-name="Path 82" d="M287.7,447.692a22.468,22.468,0,0,1,7.122-5.564,20.476,20.476,0,0,1,9.273-2.077,23.057,23.057,0,0,1,9.694,2.182,19.794,19.794,0,0,1,7.517,5.731l18.806-21.705a37.659,37.659,0,0,0-7.023-5.44,45.878,45.878,0,0,0-8.9-4.154,73.028,73.028,0,0,0-10.089-2.671,57.324,57.324,0,0,0-10.578-.983,62.983,62.983,0,0,0-21.594,3.66,51.787,51.787,0,0,0-17.576,10.51A48.653,48.653,0,0,0,252.612,443.7a57.939,57.939,0,0,0,0,43.708,48.712,48.712,0,0,0,11.746,16.519,50.647,50.647,0,0,0,17.576,10.386,65.154,65.154,0,0,0,21.792,3.554,62.263,62.263,0,0,0,20.568-3.363,42.172,42.172,0,0,0,15.82-9.273l-18-21.953a18.728,18.728,0,0,1-7.814,5.434,26.828,26.828,0,0,1-9.792,1.855,22.359,22.359,0,0,1-9.589-1.979,21.941,21.941,0,0,1-7.32-5.44,23.392,23.392,0,0,1-4.649-8.037,29.018,29.018,0,0,1-1.583-9.687,27.566,27.566,0,0,1,1.682-9.694A25.888,25.888,0,0,1,287.7,447.692Zm137.552-22.145a31.477,31.477,0,0,0-13.947-9.5,63.282,63.282,0,0,0-21.063-3.091,69.587,69.587,0,0,0-23.641,4.155,56.73,56.73,0,0,0-20.271,12.463l16.37,17.588a42.687,42.687,0,0,1,10.973-7.122,31.615,31.615,0,0,1,13.353-2.961,22.211,22.211,0,0,1,12.667,3.462,12.087,12.087,0,0,1,5.144,10.775V452.9a210,210,0,0,0-21.959,1.187,79.179,79.179,0,0,0-20.469,4.748,38.33,38.33,0,0,0-15.035,10.083,24.82,24.82,0,0,0-5.83,17.211,29.279,29.279,0,0,0,3.363,14.639,27.788,27.788,0,0,0,8.606,9.49,35.681,35.681,0,0,0,11.573,5.149,50.623,50.623,0,0,0,12.265,1.583,40.48,40.48,0,0,0,16.512-3.363,24.446,24.446,0,0,0,11.375-9.49h.618v10.51h29.674V465.008a96.043,96.043,0,0,0-2.473-23.239A40.579,40.579,0,0,0,425.254,425.548Zm-19.381,49.5a20.356,20.356,0,0,1-5.243,14.738,20.041,20.041,0,0,1-15.134,5.447,25.512,25.512,0,0,1-4.946-.5A13.6,13.6,0,0,1,376,493.05a9.981,9.981,0,0,1-3.264-3.165,8.435,8.435,0,0,1-1.28-4.754,9.244,9.244,0,0,1,2.77-7.017,17.909,17.909,0,0,1,7.017-4.055,44.937,44.937,0,0,1,9.694-1.855q5.434-.491,10.776-.495h4.161Zm77.746-36.963a19.8,19.8,0,0,1,8.408-1.787A25.821,25.821,0,0,1,503.3,438.87a36.414,36.414,0,0,1,9.273,6.33l17.829-18.317A46.744,46.744,0,0,0,512.478,416.5a69.357,69.357,0,0,0-21.637-3.462A56.938,56.938,0,0,0,476.5,414.89a42.952,42.952,0,0,0-13.156,5.836,31.671,31.671,0,0,0-9.694,10.188,28.68,28.68,0,0,0-3.759,15.134,25.343,25.343,0,0,0,2.572,11.864,26.487,26.487,0,0,0,6.627,8.3,32.333,32.333,0,0,0,9.2,5.341,75.388,75.388,0,0,0,10.281,3.165,85.322,85.322,0,0,1,14.837,4.55A7.112,7.112,0,0,1,498.16,486a6.745,6.745,0,0,1-3.858,6.627,17.754,17.754,0,0,1-7.808,1.855,29.733,29.733,0,0,1-13.458-3.165,36.355,36.355,0,0,1-10.683-7.913l-18.194,19.164a49.6,49.6,0,0,0,19.282,11.375,74.4,74.4,0,0,0,23.641,3.858,65.141,65.141,0,0,0,15.029-1.774,42.218,42.218,0,0,0,13.551-5.743,29.551,29.551,0,0,0,13.545-26.113,25.64,25.64,0,0,0-2.763-12.259,27.578,27.578,0,0,0-7.32-8.7,39.705,39.705,0,0,0-10.188-5.737,74.987,74.987,0,0,0-11.177-3.363,92.917,92.917,0,0,1-13.749-3.957,6.1,6.1,0,0,1-4.247-5.941A6.235,6.235,0,0,1,483.62,438.085Zm245.616-11.969a32.379,32.379,0,0,0-11.072-9.2,36.256,36.256,0,0,0-16.908-3.561,32.253,32.253,0,0,0-17.607,4.649,30.825,30.825,0,0,0-10.683,10.584h-.4V395.366H640.127v119.26h32.438V461.417a24.054,24.054,0,0,1,4.55-14.93,15.366,15.366,0,0,1,13.05-6.04,13.586,13.586,0,0,1,7.122,1.688,12.862,12.862,0,0,1,4.451,4.55,18.976,18.976,0,0,1,2.275,6.627,50.7,50.7,0,0,1,.618,7.919v53.4l32.592.025V453.738a58.777,58.777,0,0,0-1.855-14.639A36.377,36.377,0,0,0,729.236,426.116Zm81.215,43.195A25.1,25.1,0,0,1,806,484.148a14.848,14.848,0,0,1-12.982,6.33A13.951,13.951,0,0,1,785.7,488.8a12.53,12.53,0,0,1-4.457-4.655,19.8,19.8,0,0,1-2.275-6.72,50.6,50.6,0,0,1-.618-7.913V416.1H745.718v60.925a57.839,57.839,0,0,0,1.855,14.738,36.25,36.25,0,0,0,6.132,12.853,32.409,32.409,0,0,0,11.072,9.205,35.877,35.877,0,0,0,16.692,3.555,34.289,34.289,0,0,0,9.786-1.385,41.346,41.346,0,0,0,8.507-3.561,29.644,29.644,0,0,0,6.732-5.144,27.8,27.8,0,0,0,4.649-6.33h.4v13.675l31.35-.019V416.107H810.451ZM959.49,445.324a51.227,51.227,0,0,0-9.273-16.519A43.37,43.37,0,0,0,916.3,413.35a37.531,37.531,0,0,0-18.4,4.161,40.76,40.76,0,0,0-11.672,9.094h-.4V385.271H853.392V514.589h29.829V501.73h.4A30.733,30.733,0,0,0,897.161,513.3a44.157,44.157,0,0,0,18.7,4.055,43.635,43.635,0,0,0,19.783-4.327,45.371,45.371,0,0,0,14.738-11.567,50.858,50.858,0,0,0,9.2-16.692,62.353,62.353,0,0,0,3.166-19.783A59.6,59.6,0,0,0,959.49,445.324ZM930.038,474.4a24.114,24.114,0,0,1-4.451,8.21,23.277,23.277,0,0,1-27.3,5.743,23.589,23.589,0,0,1-7.419-5.743,25.954,25.954,0,0,1-4.748-8.111,26.524,26.524,0,0,1,0-18.6,26.043,26.043,0,0,1,4.748-8.1,23.66,23.66,0,0,1,7.419-5.737,21.883,21.883,0,0,1,9.891-2.176,22.315,22.315,0,0,1,10.089,2.176,22.7,22.7,0,0,1,11.746,13.65,29.7,29.7,0,0,1,1.484,9.273A30.781,30.781,0,0,1,930.038,474.4ZM620.48,425.548a31.5,31.5,0,0,0-13.953-9.5,63.282,63.282,0,0,0-21.063-3.091,69.587,69.587,0,0,0-23.641,4.155,56.759,56.759,0,0,0-20.265,12.463l16.383,17.588a42.8,42.8,0,0,1,10.973-7.122,31.615,31.615,0,0,1,13.354-2.961,22.225,22.225,0,0,1,12.667,3.462,12.1,12.1,0,0,1,5.137,10.775V452.9a210,210,0,0,0-21.959,1.187,79.18,79.18,0,0,0-20.469,4.748,38.309,38.309,0,0,0-15.029,10.083,24.854,24.854,0,0,0-5.836,17.211,29.212,29.212,0,0,0,3.363,14.639,27.723,27.723,0,0,0,8.606,9.49,35.649,35.649,0,0,0,11.567,5.149,50.623,50.623,0,0,0,12.265,1.583,40.489,40.489,0,0,0,16.519-3.363c4.68-1.91,11.993-8.729,11.993-8.729a15.859,15.859,0,0,1,29.674-1.681V465.008a96.049,96.049,0,0,0-2.473-23.239A40.673,40.673,0,0,0,620.48,425.548Zm-19.381,49.5a20.44,20.44,0,0,1-5.236,14.738,20.079,20.079,0,0,1-15.14,5.447,25.511,25.511,0,0,1-4.946-.5,13.637,13.637,0,0,1-4.556-1.681,9.961,9.961,0,0,1-3.258-3.165,8.433,8.433,0,0,1-1.28-4.754,9.242,9.242,0,0,1,2.77-7.017,17.93,17.93,0,0,1,7.01-4.055,44.937,44.937,0,0,1,9.694-1.855q5.434-.491,10.788-.495H601.1Zm15.122,22.868a11.752,11.752,0,1,0,11.752,11.759A11.765,11.765,0,0,0,616.221,497.916Z" transform="translate(-248.333 -385.271)" fill="#e7495f"/>
</svg>
