<svg xmlns="http://www.w3.org/2000/svg" width="249.003" height="248.999" viewBox="0 0 249.003 248.999">
  <path id="Path_81" data-name="Path 81" d="M414.808,691.4a124.625,124.625,0,1,0-35.984,40.179l44.162,13.251A4.333,4.333,0,0,0,428.4,739.5Zm-59.641-.585a5.357,5.357,0,0,1-5.356,5.356h-87.1a5.354,5.354,0,0,1-5.352-5.356v-79.4a5.347,5.347,0,0,1,1.67-3.887l43.645-41.346a5.355,5.355,0,0,1,7.375.007L353.5,607.523a5.353,5.353,0,0,1,1.667,3.881Z" transform="translate(-181.759 -505.938)" fill="#e7495f"/>
</svg>
