<?xml version="1.0" encoding="utf-8"?>
<!-- Generator: Adobe Illustrator 24.0.1, SVG Export Plug-In . SVG Version: 6.00 Build 0)  -->
<svg version="1.1" id="Layer_1" xmlns="http://www.w3.org/2000/svg" xmlns:xlink="http://www.w3.org/1999/xlink" x="0px" y="0px"
	 viewBox="0 0 249 249" style="enable-background:new 0 0 249 249;" xml:space="preserve">
<style type="text/css">
	.st0{fill:#E9F0F4;}
</style>
<path id="Path_81" class="st0" d="M233,185.5c33.7-60,12.4-136-47.5-169.7S49.5,3.3,15.8,63.3c-33.7,60-12.4,136,47.5,169.7
	c42.2,23.7,94.4,20.9,133.7-7.4l44.2,13.3c2.3,0.7,4.7-0.6,5.4-2.9c0.2-0.8,0.2-1.6,0-2.4L233,185.5z M173.4,184.9
	c0,3-2.4,5.4-5.4,5.4H81c-3,0-5.4-2.4-5.4-5.4l0,0v-79.4c0-1.5,0.6-2.9,1.7-3.9l43.6-41.3c2.1-2,5.3-2,7.4,0l43.5,41.3
	c1.1,1,1.7,2.4,1.7,3.9L173.4,184.9z"/>
</svg>
