<?xml version="1.0" encoding="utf-8"?>
<!-- Generator: Adobe Illustrator 24.0.1, SVG Export Plug-In . SVG Version: 6.00 Build 0)  -->
<svg version="1.1" id="Layer_1" xmlns="http://www.w3.org/2000/svg" xmlns:xlink="http://www.w3.org/1999/xlink" x="0px" y="0px"
	 viewBox="0 0 1145 455" style="enable-background:new 0 0 1145 455;" xml:space="preserve">
<style type="text/css">
	
		.st0{fill-rule:evenodd;clip-rule:evenodd;fill:url(#SVGID_1_);stroke:#4AADE2;stroke-width:4;stroke-linejoin:bevel;stroke-miterlimit:10;}
	.st1{fill-rule:evenodd;clip-rule:evenodd;fill:#FFFFFF;}
	.st2{fill:#F4F8FB;stroke:#3EB0EF;stroke-width:4;}
	.st3{enable-background:new    ;}
	.st4{fill:#343F44;}
	.st5{fill:#379ED7;}
</style>
<linearGradient id="SVGID_1_" gradientUnits="userSpaceOnUse" x1="800.8135" y1="623.1396" x2="800.8135" y2="622.0096" gradientTransform="matrix(1162 0 0 -507.18 -929944 315925.625)">
	<stop  offset="0" style="stop-color:#3A7494"/>
	<stop  offset="1" style="stop-color:#213742"/>
</linearGradient>
<path class="st0" d="M25.7,458.5c47.4-21.9,116.8-33,206.6-33c65,0,137.4-15.5,215.1-46c76.6-30.1,139.2-67.1,178.3-92.9
	c102.5-67.7,203-110.9,269.1-135.2c16.7-6.1,33.7-11.7,50.1-17.1c62.3-20.4,121.2-39.7,168.3-88.8c33.7-35.1,54.7-61.8,63.7-81.1
	v494.2"/>
<title>testArtboard 1test</title>
<image style="overflow:visible;opacity:0.1;enable-background:new    ;" width="141" height="107" xlink:href="F232739981FE2DDE.webp"  transform="matrix(0.9921 0 0 0.9921 837.238 149.5535)">
</image>
<path class="st1" d="M898,176l9.2-11l9.2,11h38.9c3.3,0,6,2.7,6,6v52c0,3.3-2.7,6-6,6h-97c-3.3,0-6-2.7-6-6v-52c0-3.3,2.7-6,6-6H898
	z"/>
<image style="overflow:visible;opacity:0.1;enable-background:new    ;" width="139" height="105" xlink:href="F232739981FE2DD1.webp"  transform="matrix(1 0 0 1 -1 331)">
</image>
<path class="st1" d="M77.2,410L68,421l-9.2-11H20c-3.3,0-6-2.7-6-6v-52c0-3.3,2.7-6,6-6h97c3.3,0,6,2.7,6,6v52c0,3.3-2.7,6-6,6H77.2
	z"/>
<circle class="st2" cx="69" cy="441" r="6"/>
<circle class="st2" cx="337" cy="411" r="6"/>
<circle class="st2" cx="627" cy="284" r="6"/>
<circle class="st2" cx="907" cy="145" r="6"/>
<g class="st3">
	<path class="st4" d="M32.3,368.2h-6V367l2.2-2.2c0.6-0.7,1.1-1.1,1.2-1.4s0.3-0.5,0.4-0.7s0.1-0.4,0.1-0.7c0-0.3-0.1-0.6-0.3-0.8
		s-0.4-0.3-0.8-0.3c-0.3,0-0.7,0.1-1,0.2s-0.6,0.4-1,0.7l-1-1.2c0.4-0.4,0.8-0.6,1-0.8s0.6-0.3,0.9-0.3s0.7-0.1,1.1-0.1
		c0.5,0,1,0.1,1.4,0.3s0.7,0.5,1,0.8s0.3,0.8,0.3,1.2c0,0.4-0.1,0.8-0.2,1.1s-0.4,0.7-0.6,1.1s-0.8,0.9-1.5,1.6l-1.1,1v0.1h3.7
		V368.2z"/>
	<path class="st4" d="M39.1,363.9c0,1.5-0.2,2.6-0.7,3.3s-1.2,1.1-2.3,1.1c-1,0-1.7-0.4-2.2-1.1s-0.8-1.8-0.8-3.3
		c0-1.5,0.2-2.6,0.7-3.3s1.2-1.1,2.3-1.1c1,0,1.7,0.4,2.2,1.1S39.1,362.5,39.1,363.9z M34.9,363.9c0,1.1,0.1,1.8,0.3,2.3
		s0.5,0.7,0.9,0.7c0.4,0,0.7-0.2,0.9-0.7s0.3-1.2,0.3-2.2c0-1.1-0.1-1.8-0.3-2.3s-0.5-0.7-0.9-0.7c-0.4,0-0.7,0.2-0.9,0.7
		S34.9,362.9,34.9,363.9z"/>
	<path class="st4" d="M44.5,368.2h-1.8v-5l0-0.8l0-0.9c-0.3,0.3-0.5,0.5-0.6,0.6l-1,0.8l-0.9-1.1l2.8-2.2h1.5V368.2z"/>
	<path class="st4" d="M52.8,363.3c0,1.7-0.4,2.9-1.1,3.8s-1.8,1.2-3.2,1.2c-0.5,0-0.9,0-1.2-0.1v-1.5c0.3,0.1,0.7,0.1,1,0.1
		c0.6,0,1.1-0.1,1.5-0.3s0.7-0.5,0.9-0.8s0.3-0.9,0.4-1.6H51c-0.2,0.4-0.5,0.6-0.8,0.8s-0.7,0.2-1.1,0.2c-0.7,0-1.3-0.2-1.8-0.7
		s-0.6-1.1-0.6-2c0-0.9,0.3-1.6,0.8-2.2s1.2-0.8,2.1-0.8c0.6,0,1.2,0.1,1.7,0.4s0.8,0.7,1.1,1.3S52.8,362.5,52.8,363.3z M49.7,361
		c-0.4,0-0.7,0.1-0.9,0.4s-0.3,0.6-0.3,1.1c0,0.4,0.1,0.7,0.3,1s0.5,0.4,0.9,0.4c0.4,0,0.7-0.1,0.9-0.4s0.4-0.5,0.4-0.8
		c0-0.5-0.1-0.9-0.4-1.2S50.1,361,49.7,361z"/>
</g>
<g class="st3">
	<path class="st5" d="M32.3,368.2h-6V367l2.2-2.2c0.6-0.7,1.1-1.1,1.2-1.4s0.3-0.5,0.4-0.7s0.1-0.4,0.1-0.7c0-0.3-0.1-0.6-0.3-0.8
		s-0.4-0.3-0.8-0.3c-0.3,0-0.7,0.1-1,0.2s-0.6,0.4-1,0.7l-1-1.2c0.4-0.4,0.8-0.6,1-0.8s0.6-0.3,0.9-0.3s0.7-0.1,1.1-0.1
		c0.5,0,1,0.1,1.4,0.3s0.7,0.5,1,0.8s0.3,0.8,0.3,1.2c0,0.4-0.1,0.8-0.2,1.1s-0.4,0.7-0.6,1.1s-0.8,0.9-1.5,1.6l-1.1,1v0.1h3.7
		V368.2z"/>
	<path class="st5" d="M39.1,363.9c0,1.5-0.2,2.6-0.7,3.3s-1.2,1.1-2.3,1.1c-1,0-1.7-0.4-2.2-1.1s-0.8-1.8-0.8-3.3
		c0-1.5,0.2-2.6,0.7-3.3s1.2-1.1,2.3-1.1c1,0,1.7,0.4,2.2,1.1S39.1,362.5,39.1,363.9z M34.9,363.9c0,1.1,0.1,1.8,0.3,2.3
		s0.5,0.7,0.9,0.7c0.4,0,0.7-0.2,0.9-0.7s0.3-1.2,0.3-2.2c0-1.1-0.1-1.8-0.3-2.3s-0.5-0.7-0.9-0.7c-0.4,0-0.7,0.2-0.9,0.7
		S34.9,362.9,34.9,363.9z"/>
	<path class="st5" d="M44.5,368.2h-1.8v-5l0-0.8l0-0.9c-0.3,0.3-0.5,0.5-0.6,0.6l-1,0.8l-0.9-1.1l2.8-2.2h1.5V368.2z"/>
	<path class="st5" d="M52.8,363.3c0,1.7-0.4,2.9-1.1,3.8s-1.8,1.2-3.2,1.2c-0.5,0-0.9,0-1.2-0.1v-1.5c0.3,0.1,0.7,0.1,1,0.1
		c0.6,0,1.1-0.1,1.5-0.3s0.7-0.5,0.9-0.8s0.3-0.9,0.4-1.6H51c-0.2,0.4-0.5,0.6-0.8,0.8s-0.7,0.2-1.1,0.2c-0.7,0-1.3-0.2-1.8-0.7
		s-0.6-1.1-0.6-2c0-0.9,0.3-1.6,0.8-2.2s1.2-0.8,2.1-0.8c0.6,0,1.2,0.1,1.7,0.4s0.8,0.7,1.1,1.3S52.8,362.5,52.8,363.3z M49.7,361
		c-0.4,0-0.7,0.1-0.9,0.4s-0.3,0.6-0.3,1.1c0,0.4,0.1,0.7,0.3,1s0.5,0.4,0.9,0.4c0.4,0,0.7-0.1,0.9-0.4s0.4-0.5,0.4-0.8
		c0-0.5-0.1-0.9-0.4-1.2S50.1,361,49.7,361z"/>
</g>
<g class="st3">
	<path class="st4" d="M27,383.2v-8.6h1v8.6H27z"/>
	<path class="st4" d="M34.5,382.3L34.5,382.3c-0.5,0.7-1.2,1-2.1,1c-0.8,0-1.5-0.3-2-0.9s-0.7-1.4-0.7-2.4s0.2-1.9,0.7-2.5
		s1.1-0.9,2-0.9c0.9,0,1.5,0.3,2,0.9h0.1l0-0.5l0-0.5v-2.6h1v9.1h-0.8L34.5,382.3z M32.6,382.5c0.7,0,1.1-0.2,1.4-0.5
		s0.4-0.9,0.4-1.7V380c0-0.9-0.2-1.6-0.5-1.9s-0.8-0.6-1.5-0.6c-0.6,0-1,0.2-1.3,0.7s-0.5,1.1-0.5,1.9c0,0.8,0.2,1.4,0.5,1.9
		S32,382.5,32.6,382.5z"/>
	<path class="st4" d="M40.2,383.3c-0.9,0-1.7-0.3-2.2-0.9s-0.8-1.4-0.8-2.4c0-1,0.3-1.9,0.8-2.5s1.2-0.9,2.1-0.9
		c0.8,0,1.4,0.3,1.9,0.8s0.7,1.2,0.7,2.1v0.6h-4.4c0,0.8,0.2,1.3,0.6,1.7s0.9,0.6,1.5,0.6c0.7,0,1.4-0.1,2.1-0.4v0.9
		c-0.3,0.1-0.7,0.3-1,0.3S40.7,383.3,40.2,383.3z M40,377.5c-0.5,0-0.9,0.2-1.2,0.5s-0.5,0.8-0.5,1.4h3.4c0-0.6-0.1-1.1-0.4-1.4
		S40.5,377.5,40,377.5z"/>
	<path class="st4" d="M44.2,375c0-0.2,0.1-0.4,0.2-0.5s0.2-0.2,0.4-0.2c0.2,0,0.3,0.1,0.4,0.2s0.2,0.3,0.2,0.5s-0.1,0.4-0.2,0.5
		s-0.2,0.2-0.4,0.2c-0.2,0-0.3-0.1-0.4-0.2S44.2,375.2,44.2,375z M45.2,383.2h-1v-6.4h1V383.2z"/>
	<path class="st4" d="M51.2,383.2l-0.2-0.9h0c-0.3,0.4-0.6,0.7-1,0.8s-0.7,0.2-1.2,0.2c-0.6,0-1.1-0.2-1.5-0.5s-0.5-0.8-0.5-1.4
		c0-1.3,1-2,3.1-2l1.1,0v-0.4c0-0.5-0.1-0.9-0.3-1.1s-0.6-0.4-1-0.4c-0.5,0-1.1,0.2-1.8,0.5l-0.3-0.7c0.3-0.2,0.7-0.3,1-0.4
		s0.8-0.1,1.1-0.1c0.8,0,1.3,0.2,1.7,0.5s0.6,0.9,0.6,1.6v4.4H51.2z M49,382.5c0.6,0,1.1-0.2,1.4-0.5s0.5-0.8,0.5-1.4V380l-1,0
		c-0.8,0-1.3,0.1-1.7,0.4s-0.5,0.5-0.5,1c0,0.4,0.1,0.6,0.3,0.8S48.7,382.5,49,382.5z"/>
	<path class="st4" d="M55,381.8l0.1,0.1c-0.1,0.4-0.2,0.8-0.4,1.4s-0.4,1-0.6,1.4h-0.7c0.1-0.4,0.2-0.9,0.3-1.5s0.2-1.1,0.3-1.4H55z
		"/>
	<path class="st4" d="M63,376.7c0.8,0,1.5,0.3,2,0.9s0.7,1.4,0.7,2.4s-0.2,1.9-0.7,2.5s-1.1,0.9-2,0.9c-0.4,0-0.8-0.1-1.1-0.2
		s-0.6-0.4-0.9-0.7h-0.1l-0.2,0.8H60v-9.1h1v2.2c0,0.5,0,0.9,0,1.3h0C61.5,377,62.1,376.7,63,376.7z M62.9,377.5
		c-0.7,0-1.1,0.2-1.4,0.6s-0.4,1-0.4,1.9s0.2,1.5,0.5,1.9s0.8,0.6,1.4,0.6c0.6,0,1-0.2,1.3-0.7s0.4-1.1,0.4-1.9
		c0-0.8-0.1-1.5-0.4-1.9S63.5,377.5,62.9,377.5z"/>
	<path class="st4" d="M70.1,383.3c-0.9,0-1.7-0.3-2.2-0.9S67,381.1,67,380c0-1,0.3-1.9,0.8-2.5s1.2-0.9,2.1-0.9
		c0.8,0,1.4,0.3,1.9,0.8s0.7,1.2,0.7,2.1v0.6H68c0,0.8,0.2,1.3,0.6,1.7s0.9,0.6,1.5,0.6c0.7,0,1.4-0.1,2.1-0.4v0.9
		c-0.3,0.1-0.7,0.3-1,0.3S70.5,383.3,70.1,383.3z M69.8,377.5c-0.5,0-0.9,0.2-1.2,0.5s-0.5,0.8-0.5,1.4h3.4c0-0.6-0.1-1.1-0.4-1.4
		S70.3,377.5,69.8,377.5z"/>
	<path class="st4" d="M76.2,382.5c0.2,0,0.3,0,0.5,0s0.3-0.1,0.4-0.1v0.7c-0.1,0.1-0.3,0.1-0.5,0.1s-0.4,0-0.6,0
		c-1.2,0-1.9-0.7-1.9-2v-3.8h-0.9v-0.5l0.9-0.4l0.4-1.4h0.6v1.5H77v0.8h-1.9v3.8c0,0.4,0.1,0.7,0.3,0.9S75.9,382.5,76.2,382.5z"/>
	<path class="st4" d="M82.3,383.2l-0.2-0.9h0c-0.3,0.4-0.6,0.7-1,0.8s-0.7,0.2-1.2,0.2c-0.6,0-1.1-0.2-1.5-0.5s-0.5-0.8-0.5-1.4
		c0-1.3,1-2,3.1-2l1.1,0v-0.4c0-0.5-0.1-0.9-0.3-1.1s-0.6-0.4-1-0.4c-0.5,0-1.1,0.2-1.8,0.5l-0.3-0.7c0.3-0.2,0.7-0.3,1-0.4
		s0.8-0.1,1.1-0.1c0.8,0,1.3,0.2,1.7,0.5s0.6,0.9,0.6,1.6v4.4H82.3z M80.1,382.5c0.6,0,1.1-0.2,1.4-0.5s0.5-0.8,0.5-1.4V380l-1,0
		c-0.8,0-1.3,0.1-1.7,0.4s-0.5,0.5-0.5,1c0,0.4,0.1,0.6,0.3,0.8S79.7,382.5,80.1,382.5z"/>
</g>
<g class="st3">
	<path class="st4" d="M29.5,397.7c-0.9,0-1.7-0.3-2.2-0.9s-0.8-1.4-0.8-2.4c0-1,0.3-1.9,0.8-2.5s1.2-0.9,2.1-0.9
		c0.8,0,1.4,0.3,1.9,0.8s0.7,1.2,0.7,2.1v0.6h-4.4c0,0.8,0.2,1.3,0.6,1.7s0.9,0.6,1.5,0.6c0.7,0,1.4-0.1,2.1-0.4v0.9
		c-0.3,0.1-0.7,0.3-1,0.3S30,397.7,29.5,397.7z M29.3,391.9c-0.5,0-0.9,0.2-1.2,0.5s-0.5,0.8-0.5,1.4h3.4c0-0.6-0.1-1.1-0.4-1.4
		S29.8,391.9,29.3,391.9z"/>
	<path class="st4" d="M40.6,397.6l-2.9-7.6h0c0.1,0.6,0.1,1.3,0.1,2.1v5.4h-0.9V389h1.5l2.7,7.1h0l2.7-7.1h1.5v8.6h-1v-5.5
		c0-0.6,0-1.3,0.1-2.1h0l-2.9,7.6H40.6z"/>
	<path class="st4" d="M52.6,389h1.1l-3.1,8.6h-1l-3.1-8.6h1.1l2,5.5c0.2,0.6,0.4,1.3,0.5,1.9c0.1-0.6,0.3-1.3,0.6-1.9L52.6,389z"/>
	<path class="st4" d="M60.2,391.5c0,0.9-0.3,1.5-0.9,2s-1.4,0.7-2.5,0.7h-1v3.4h-1V389H57C59.2,389,60.2,389.9,60.2,391.5z
		 M55.8,393.4h0.9c0.9,0,1.5-0.1,1.9-0.4s0.6-0.7,0.6-1.4c0-0.6-0.2-1-0.6-1.3s-0.9-0.4-1.7-0.4h-1.1V393.4z"/>
</g>
<g class="st3">
	<path class="st5" d="M866.9,196.9h-6v-1.3l2.2-2.2c0.6-0.7,1.1-1.1,1.2-1.4s0.3-0.5,0.4-0.7s0.1-0.4,0.1-0.7c0-0.3-0.1-0.6-0.3-0.8
		s-0.4-0.3-0.8-0.3c-0.3,0-0.7,0.1-1,0.2s-0.6,0.4-1,0.7l-1-1.2c0.4-0.4,0.8-0.6,1-0.8s0.6-0.3,0.9-0.3s0.7-0.1,1.1-0.1
		c0.5,0,1,0.1,1.4,0.3s0.7,0.5,1,0.8s0.3,0.8,0.3,1.2c0,0.4-0.1,0.8-0.2,1.1s-0.4,0.7-0.6,1.1s-0.8,0.9-1.5,1.6l-1.1,1v0.1h3.7
		V196.9z"/>
	<path class="st5" d="M873.7,192.6c0,1.5-0.2,2.6-0.7,3.3s-1.2,1.1-2.3,1.1c-1,0-1.7-0.4-2.2-1.1s-0.8-1.8-0.8-3.3
		c0-1.5,0.2-2.6,0.7-3.3s1.2-1.1,2.3-1.1c1,0,1.7,0.4,2.2,1.1S873.7,191.1,873.7,192.6z M869.5,192.6c0,1.1,0.1,1.8,0.3,2.3
		s0.5,0.7,0.9,0.7c0.4,0,0.7-0.2,0.9-0.7s0.3-1.2,0.3-2.2c0-1.1-0.1-1.8-0.3-2.3s-0.5-0.7-0.9-0.7c-0.4,0-0.7,0.2-0.9,0.7
		S869.5,191.5,869.5,192.6z"/>
	<path class="st5" d="M880.6,196.9h-6v-1.3l2.2-2.2c0.6-0.7,1.1-1.1,1.2-1.4s0.3-0.5,0.4-0.7s0.1-0.4,0.1-0.7c0-0.3-0.1-0.6-0.3-0.8
		s-0.4-0.3-0.8-0.3c-0.3,0-0.7,0.1-1,0.2s-0.6,0.4-1,0.7l-1-1.2c0.4-0.4,0.8-0.6,1-0.8s0.6-0.3,0.9-0.3s0.7-0.1,1.1-0.1
		c0.5,0,1,0.1,1.4,0.3s0.7,0.5,1,0.8s0.3,0.8,0.3,1.2c0,0.4-0.1,0.8-0.2,1.1s-0.4,0.7-0.6,1.1s-0.8,0.9-1.5,1.6l-1.1,1v0.1h3.7
		V196.9z"/>
	<path class="st5" d="M887.4,192.6c0,1.5-0.2,2.6-0.7,3.3s-1.2,1.1-2.3,1.1c-1,0-1.7-0.4-2.2-1.1s-0.8-1.8-0.8-3.3
		c0-1.5,0.2-2.6,0.7-3.3s1.2-1.1,2.3-1.1c1,0,1.7,0.4,2.2,1.1S887.4,191.1,887.4,192.6z M883.2,192.6c0,1.1,0.1,1.8,0.3,2.3
		s0.5,0.7,0.9,0.7c0.4,0,0.7-0.2,0.9-0.7s0.3-1.2,0.3-2.2c0-1.1-0.1-1.8-0.3-2.3s-0.5-0.7-0.9-0.7c-0.4,0-0.7,0.2-0.9,0.7
		S883.2,191.5,883.2,192.6z"/>
</g>
<g class="st3">
	<path class="st5" d="M32.3,368.2h-6V367l2.2-2.2c0.6-0.7,1.1-1.1,1.2-1.4s0.3-0.5,0.4-0.7s0.1-0.4,0.1-0.7c0-0.3-0.1-0.6-0.3-0.8
		s-0.4-0.3-0.8-0.3c-0.3,0-0.7,0.1-1,0.2s-0.6,0.4-1,0.7l-1-1.2c0.4-0.4,0.8-0.6,1-0.8s0.6-0.3,0.9-0.3s0.7-0.1,1.1-0.1
		c0.5,0,1,0.1,1.4,0.3s0.7,0.5,1,0.8s0.3,0.8,0.3,1.2c0,0.4-0.1,0.8-0.2,1.1s-0.4,0.7-0.6,1.1s-0.8,0.9-1.5,1.6l-1.1,1v0.1h3.7
		V368.2z"/>
	<path class="st5" d="M39.1,363.9c0,1.5-0.2,2.6-0.7,3.3s-1.2,1.1-2.3,1.1c-1,0-1.7-0.4-2.2-1.1s-0.8-1.8-0.8-3.3
		c0-1.5,0.2-2.6,0.7-3.3s1.2-1.1,2.3-1.1c1,0,1.7,0.4,2.2,1.1S39.1,362.5,39.1,363.9z M34.9,363.9c0,1.1,0.1,1.8,0.3,2.3
		s0.5,0.7,0.9,0.7c0.4,0,0.7-0.2,0.9-0.7s0.3-1.2,0.3-2.2c0-1.1-0.1-1.8-0.3-2.3s-0.5-0.7-0.9-0.7c-0.4,0-0.7,0.2-0.9,0.7
		S34.9,362.9,34.9,363.9z"/>
	<path class="st5" d="M44.5,368.2h-1.8v-5l0-0.8l0-0.9c-0.3,0.3-0.5,0.5-0.6,0.6l-1,0.8l-0.9-1.1l2.8-2.2h1.5V368.2z"/>
	<path class="st5" d="M52.8,363.3c0,1.7-0.4,2.9-1.1,3.8s-1.8,1.2-3.2,1.2c-0.5,0-0.9,0-1.2-0.1v-1.5c0.3,0.1,0.7,0.1,1,0.1
		c0.6,0,1.1-0.1,1.5-0.3s0.7-0.5,0.9-0.8s0.3-0.9,0.4-1.6H51c-0.2,0.4-0.5,0.6-0.8,0.8s-0.7,0.2-1.1,0.2c-0.7,0-1.3-0.2-1.8-0.7
		s-0.6-1.1-0.6-2c0-0.9,0.3-1.6,0.8-2.2s1.2-0.8,2.1-0.8c0.6,0,1.2,0.1,1.7,0.4s0.8,0.7,1.1,1.3S52.8,362.5,52.8,363.3z M49.7,361
		c-0.4,0-0.7,0.1-0.9,0.4s-0.3,0.6-0.3,1.1c0,0.4,0.1,0.7,0.3,1s0.5,0.4,0.9,0.4c0.4,0,0.7-0.1,0.9-0.4s0.4-0.5,0.4-0.8
		c0-0.5-0.1-0.9-0.4-1.2S50.1,361,49.7,361z"/>
</g>
<g class="st3">
	<path class="st4" d="M27,383.2v-8.6h1v8.6H27z"/>
	<path class="st4" d="M34.5,382.3L34.5,382.3c-0.5,0.7-1.2,1-2.1,1c-0.8,0-1.5-0.3-2-0.9s-0.7-1.4-0.7-2.4s0.2-1.9,0.7-2.5
		s1.1-0.9,2-0.9c0.9,0,1.5,0.3,2,0.9h0.1l0-0.5l0-0.5v-2.6h1v9.1h-0.8L34.5,382.3z M32.6,382.5c0.7,0,1.1-0.2,1.4-0.5
		s0.4-0.9,0.4-1.7V380c0-0.9-0.2-1.6-0.5-1.9s-0.8-0.6-1.5-0.6c-0.6,0-1,0.2-1.3,0.7s-0.5,1.1-0.5,1.9c0,0.8,0.2,1.4,0.5,1.9
		S32,382.5,32.6,382.5z"/>
	<path class="st4" d="M40.2,383.3c-0.9,0-1.7-0.3-2.2-0.9s-0.8-1.4-0.8-2.4c0-1,0.3-1.9,0.8-2.5s1.2-0.9,2.1-0.9
		c0.8,0,1.4,0.3,1.9,0.8s0.7,1.2,0.7,2.1v0.6h-4.4c0,0.8,0.2,1.3,0.6,1.7s0.9,0.6,1.5,0.6c0.7,0,1.4-0.1,2.1-0.4v0.9
		c-0.3,0.1-0.7,0.3-1,0.3S40.7,383.3,40.2,383.3z M40,377.5c-0.5,0-0.9,0.2-1.2,0.5s-0.5,0.8-0.5,1.4h3.4c0-0.6-0.1-1.1-0.4-1.4
		S40.5,377.5,40,377.5z"/>
	<path class="st4" d="M44.2,375c0-0.2,0.1-0.4,0.2-0.5s0.2-0.2,0.4-0.2c0.2,0,0.3,0.1,0.4,0.2s0.2,0.3,0.2,0.5s-0.1,0.4-0.2,0.5
		s-0.2,0.2-0.4,0.2c-0.2,0-0.3-0.1-0.4-0.2S44.2,375.2,44.2,375z M45.2,383.2h-1v-6.4h1V383.2z"/>
	<path class="st4" d="M51.2,383.2l-0.2-0.9h0c-0.3,0.4-0.6,0.7-1,0.8s-0.7,0.2-1.2,0.2c-0.6,0-1.1-0.2-1.5-0.5s-0.5-0.8-0.5-1.4
		c0-1.3,1-2,3.1-2l1.1,0v-0.4c0-0.5-0.1-0.9-0.3-1.1s-0.6-0.4-1-0.4c-0.5,0-1.1,0.2-1.8,0.5l-0.3-0.7c0.3-0.2,0.7-0.3,1-0.4
		s0.8-0.1,1.1-0.1c0.8,0,1.3,0.2,1.7,0.5s0.6,0.9,0.6,1.6v4.4H51.2z M49,382.5c0.6,0,1.1-0.2,1.4-0.5s0.5-0.8,0.5-1.4V380l-1,0
		c-0.8,0-1.3,0.1-1.7,0.4s-0.5,0.5-0.5,1c0,0.4,0.1,0.6,0.3,0.8S48.7,382.5,49,382.5z"/>
	<path class="st4" d="M55,381.8l0.1,0.1c-0.1,0.4-0.2,0.8-0.4,1.4s-0.4,1-0.6,1.4h-0.7c0.1-0.4,0.2-0.9,0.3-1.5s0.2-1.1,0.3-1.4H55z
		"/>
	<path class="st4" d="M63,376.7c0.8,0,1.5,0.3,2,0.9s0.7,1.4,0.7,2.4s-0.2,1.9-0.7,2.5s-1.1,0.9-2,0.9c-0.4,0-0.8-0.1-1.1-0.2
		s-0.6-0.4-0.9-0.7h-0.1l-0.2,0.8H60v-9.1h1v2.2c0,0.5,0,0.9,0,1.3h0C61.5,377,62.1,376.7,63,376.7z M62.9,377.5
		c-0.7,0-1.1,0.2-1.4,0.6s-0.4,1-0.4,1.9s0.2,1.5,0.5,1.9s0.8,0.6,1.4,0.6c0.6,0,1-0.2,1.3-0.7s0.4-1.1,0.4-1.9
		c0-0.8-0.1-1.5-0.4-1.9S63.5,377.5,62.9,377.5z"/>
	<path class="st4" d="M70.1,383.3c-0.9,0-1.7-0.3-2.2-0.9S67,381.1,67,380c0-1,0.3-1.9,0.8-2.5s1.2-0.9,2.1-0.9
		c0.8,0,1.4,0.3,1.9,0.8s0.7,1.2,0.7,2.1v0.6H68c0,0.8,0.2,1.3,0.6,1.7s0.9,0.6,1.5,0.6c0.7,0,1.4-0.1,2.1-0.4v0.9
		c-0.3,0.1-0.7,0.3-1,0.3S70.5,383.3,70.1,383.3z M69.8,377.5c-0.5,0-0.9,0.2-1.2,0.5s-0.5,0.8-0.5,1.4h3.4c0-0.6-0.1-1.1-0.4-1.4
		S70.3,377.5,69.8,377.5z"/>
	<path class="st4" d="M76.2,382.5c0.2,0,0.3,0,0.5,0s0.3-0.1,0.4-0.1v0.7c-0.1,0.1-0.3,0.1-0.5,0.1s-0.4,0-0.6,0
		c-1.2,0-1.9-0.7-1.9-2v-3.8h-0.9v-0.5l0.9-0.4l0.4-1.4h0.6v1.5H77v0.8h-1.9v3.8c0,0.4,0.1,0.7,0.3,0.9S75.9,382.5,76.2,382.5z"/>
	<path class="st4" d="M82.3,383.2l-0.2-0.9h0c-0.3,0.4-0.6,0.7-1,0.8s-0.7,0.2-1.2,0.2c-0.6,0-1.1-0.2-1.5-0.5s-0.5-0.8-0.5-1.4
		c0-1.3,1-2,3.1-2l1.1,0v-0.4c0-0.5-0.1-0.9-0.3-1.1s-0.6-0.4-1-0.4c-0.5,0-1.1,0.2-1.8,0.5l-0.3-0.7c0.3-0.2,0.7-0.3,1-0.4
		s0.8-0.1,1.1-0.1c0.8,0,1.3,0.2,1.7,0.5s0.6,0.9,0.6,1.6v4.4H82.3z M80.1,382.5c0.6,0,1.1-0.2,1.4-0.5s0.5-0.8,0.5-1.4V380l-1,0
		c-0.8,0-1.3,0.1-1.7,0.4s-0.5,0.5-0.5,1c0,0.4,0.1,0.6,0.3,0.8S79.7,382.5,80.1,382.5z"/>
</g>
<g class="st3">
	<path class="st4" d="M29.5,397.7c-0.9,0-1.7-0.3-2.2-0.9s-0.8-1.4-0.8-2.4c0-1,0.3-1.9,0.8-2.5s1.2-0.9,2.1-0.9
		c0.8,0,1.4,0.3,1.9,0.8s0.7,1.2,0.7,2.1v0.6h-4.4c0,0.8,0.2,1.3,0.6,1.7s0.9,0.6,1.5,0.6c0.7,0,1.4-0.1,2.1-0.4v0.9
		c-0.3,0.1-0.7,0.3-1,0.3S30,397.7,29.5,397.7z M29.3,391.9c-0.5,0-0.9,0.2-1.2,0.5s-0.5,0.8-0.5,1.4h3.4c0-0.6-0.1-1.1-0.4-1.4
		S29.8,391.9,29.3,391.9z"/>
	<path class="st4" d="M40.6,397.6l-2.9-7.6h0c0.1,0.6,0.1,1.3,0.1,2.1v5.4h-0.9V389h1.5l2.7,7.1h0l2.7-7.1h1.5v8.6h-1v-5.5
		c0-0.6,0-1.3,0.1-2.1h0l-2.9,7.6H40.6z"/>
	<path class="st4" d="M52.6,389h1.1l-3.1,8.6h-1l-3.1-8.6h1.1l2,5.5c0.2,0.6,0.4,1.3,0.5,1.9c0.1-0.6,0.3-1.3,0.6-1.9L52.6,389z"/>
	<path class="st4" d="M60.2,391.5c0,0.9-0.3,1.5-0.9,2s-1.4,0.7-2.5,0.7h-1v3.4h-1V389H57C59.2,389,60.2,389.9,60.2,391.5z
		 M55.8,393.4h0.9c0.9,0,1.5-0.1,1.9-0.4s0.6-0.7,0.6-1.4c0-0.6-0.2-1-0.6-1.3s-0.9-0.4-1.7-0.4h-1.1V393.4z"/>
</g>
<g class="st3">
	<path class="st4" d="M861.6,211.8v-8.6h1v7.7h3.8v0.9H861.6z"/>
	<path class="st4" d="M871.7,211.8l-0.2-0.9h0c-0.3,0.4-0.6,0.7-1,0.8s-0.7,0.2-1.2,0.2c-0.6,0-1.1-0.2-1.5-0.5s-0.5-0.8-0.5-1.4
		c0-1.3,1-2,3.1-2l1.1,0v-0.4c0-0.5-0.1-0.9-0.3-1.1s-0.6-0.4-1-0.4c-0.5,0-1.1,0.2-1.8,0.5l-0.3-0.7c0.3-0.2,0.7-0.3,1-0.4
		s0.8-0.1,1.1-0.1c0.8,0,1.3,0.2,1.7,0.5s0.6,0.9,0.6,1.6v4.4H871.7z M869.5,211.1c0.6,0,1.1-0.2,1.4-0.5s0.5-0.8,0.5-1.4v-0.6l-1,0
		c-0.8,0-1.3,0.1-1.7,0.4s-0.5,0.5-0.5,1c0,0.4,0.1,0.6,0.3,0.8S869.1,211.1,869.5,211.1z"/>
	<path class="st4" d="M878.8,211.8v-4.2c0-0.5-0.1-0.9-0.4-1.2s-0.6-0.4-1.1-0.4c-0.7,0-1.2,0.2-1.5,0.5s-0.5,1-0.5,1.8v3.4h-1v-6.4
		h0.8l0.2,0.9h0c0.2-0.3,0.5-0.6,0.8-0.7s0.8-0.3,1.2-0.3c0.8,0,1.4,0.2,1.7,0.6s0.6,1,0.6,1.8v4.2H878.8z"/>
	<path class="st4" d="M884.3,211.9c-0.9,0-1.6-0.3-2.2-0.9s-0.8-1.4-0.8-2.4c0-1.1,0.3-1.9,0.8-2.5s1.3-0.9,2.2-0.9
		c0.3,0,0.6,0,0.9,0.1s0.6,0.1,0.7,0.2l-0.3,0.8c-0.2-0.1-0.4-0.2-0.7-0.2s-0.5-0.1-0.7-0.1c-1.3,0-2,0.8-2,2.5
		c0,0.8,0.2,1.4,0.5,1.8s0.8,0.6,1.4,0.6c0.5,0,1.1-0.1,1.6-0.3v0.9C885.5,211.8,885,211.9,884.3,211.9z M885.2,213.5
		c0,0.4-0.1,0.7-0.4,0.9s-0.7,0.3-1.3,0.3c-0.2,0-0.4,0-0.6-0.1V214c0.2,0,0.4,0,0.6,0c0.3,0,0.5,0,0.7-0.1s0.2-0.2,0.2-0.4
		c0-0.2-0.1-0.3-0.2-0.4s-0.4-0.2-0.9-0.3l0.5-1h0.6l-0.3,0.7C884.8,212.7,885.2,213,885.2,213.5z"/>
	<path class="st4" d="M891.4,211.8l-0.2-0.9h0c-0.3,0.4-0.6,0.7-1,0.8s-0.7,0.2-1.2,0.2c-0.6,0-1.1-0.2-1.5-0.5s-0.5-0.8-0.5-1.4
		c0-1.3,1-2,3.1-2l1.1,0v-0.4c0-0.5-0.1-0.9-0.3-1.1s-0.6-0.4-1-0.4c-0.5,0-1.1,0.2-1.8,0.5l-0.3-0.7c0.3-0.2,0.7-0.3,1-0.4
		s0.8-0.1,1.1-0.1c0.8,0,1.3,0.2,1.7,0.5s0.6,0.9,0.6,1.6v4.4H891.4z M889.2,211.1c0.6,0,1.1-0.2,1.4-0.5s0.5-0.8,0.5-1.4v-0.6l-1,0
		c-0.8,0-1.3,0.1-1.7,0.4s-0.5,0.5-0.5,1c0,0.4,0.1,0.6,0.3,0.8S888.8,211.1,889.2,211.1z"/>
	<path class="st4" d="M902.3,211.8v-4.2c0-0.5-0.1-0.9-0.3-1.2s-0.6-0.4-1-0.4c-0.6,0-1.1,0.2-1.3,0.5s-0.4,0.9-0.4,1.6v3.6h-1v-4.2
		c0-0.5-0.1-0.9-0.3-1.2s-0.6-0.4-1-0.4c-0.6,0-1.1,0.2-1.3,0.5s-0.4,1-0.4,1.8v3.4h-1v-6.4h0.8l0.2,0.9h0c0.2-0.3,0.4-0.6,0.8-0.7
		s0.7-0.3,1.1-0.3c1,0,1.7,0.4,2,1.1h0c0.2-0.3,0.5-0.6,0.8-0.8s0.8-0.3,1.2-0.3c0.7,0,1.3,0.2,1.6,0.6s0.5,1,0.5,1.8v4.2H902.3z"/>
	<path class="st4" d="M908,211.9c-0.9,0-1.7-0.3-2.2-0.9s-0.8-1.4-0.8-2.4c0-1,0.3-1.9,0.8-2.5s1.2-0.9,2.1-0.9
		c0.8,0,1.4,0.3,1.9,0.8s0.7,1.2,0.7,2.1v0.6H906c0,0.8,0.2,1.3,0.6,1.7s0.9,0.6,1.5,0.6c0.7,0,1.4-0.1,2.1-0.4v0.9
		c-0.3,0.1-0.7,0.3-1,0.3S908.5,211.9,908,211.9z M907.8,206.1c-0.5,0-0.9,0.2-1.2,0.5s-0.5,0.8-0.5,1.4h3.4c0-0.6-0.1-1.1-0.4-1.4
		S908.3,206.1,907.8,206.1z"/>
	<path class="st4" d="M916.4,211.8v-4.2c0-0.5-0.1-0.9-0.4-1.2s-0.6-0.4-1.1-0.4c-0.7,0-1.2,0.2-1.5,0.5s-0.5,1-0.5,1.8v3.4h-1v-6.4
		h0.8l0.2,0.9h0c0.2-0.3,0.5-0.6,0.8-0.7s0.8-0.3,1.2-0.3c0.8,0,1.4,0.2,1.7,0.6s0.6,1,0.6,1.8v4.2H916.4z"/>
	<path class="st4" d="M921.5,211.1c0.2,0,0.3,0,0.5,0s0.3-0.1,0.4-0.1v0.7c-0.1,0.1-0.3,0.1-0.5,0.1s-0.4,0-0.6,0
		c-1.2,0-1.9-0.7-1.9-2v-3.8h-0.9v-0.5l0.9-0.4l0.4-1.4h0.6v1.5h1.9v0.8h-1.9v3.8c0,0.4,0.1,0.7,0.3,0.9S921.2,211.1,921.5,211.1z"
		/>
	<path class="st4" d="M929.2,208.6c0,1-0.3,1.9-0.8,2.5s-1.3,0.9-2.2,0.9c-0.6,0-1.1-0.1-1.5-0.4s-0.8-0.7-1-1.2s-0.4-1.1-0.4-1.8
		c0-1,0.3-1.9,0.8-2.4s1.2-0.9,2.2-0.9c0.9,0,1.6,0.3,2.1,0.9S929.2,207.6,929.2,208.6z M924.3,208.6c0,0.8,0.2,1.4,0.5,1.9
		s0.8,0.6,1.4,0.6s1.1-0.2,1.5-0.6s0.5-1.1,0.5-1.9c0-0.8-0.2-1.4-0.5-1.9s-0.8-0.6-1.5-0.6c-0.6,0-1.1,0.2-1.4,0.6
		S924.3,207.8,924.3,208.6z"/>
</g>
<g class="st3">
	<path class="st4" d="M864.2,226.3c-0.9,0-1.7-0.3-2.2-0.9s-0.8-1.4-0.8-2.4c0-1,0.3-1.9,0.8-2.5s1.2-0.9,2.1-0.9
		c0.8,0,1.4,0.3,1.9,0.8s0.7,1.2,0.7,2.1v0.6h-4.4c0,0.8,0.2,1.3,0.6,1.7s0.9,0.6,1.5,0.6c0.7,0,1.4-0.1,2.1-0.4v0.9
		c-0.3,0.1-0.7,0.3-1,0.3S864.6,226.3,864.2,226.3z M863.9,220.5c-0.5,0-0.9,0.2-1.2,0.5s-0.5,0.8-0.5,1.4h3.4
		c0-0.6-0.1-1.1-0.4-1.4S864.4,220.5,863.9,220.5z"/>
</g>
<g class="st3">
	<path class="st4" d="M873.1,222.6h-2.3v-1.3h2.3v-2.3h1.3v2.3h2.3v1.3h-2.3v2.3h-1.3V222.6z"/>
	<path class="st4" d="M883.6,226.2h-6V225l2.2-2.2c0.6-0.7,1.1-1.1,1.2-1.4s0.3-0.5,0.4-0.7s0.1-0.4,0.1-0.7c0-0.3-0.1-0.6-0.3-0.8
		s-0.4-0.3-0.8-0.3c-0.3,0-0.7,0.1-1,0.2s-0.6,0.4-1,0.7l-1-1.2c0.4-0.4,0.8-0.6,1-0.8s0.6-0.3,0.9-0.3s0.7-0.1,1.1-0.1
		c0.5,0,1,0.1,1.4,0.3s0.7,0.5,1,0.8s0.3,0.8,0.3,1.2c0,0.4-0.1,0.8-0.2,1.1s-0.4,0.7-0.6,1.1s-0.8,0.9-1.5,1.6l-1.1,1v0.1h3.7
		V226.2z"/>
	<path class="st4" d="M890.4,221.9c0,1.5-0.2,2.6-0.7,3.3s-1.2,1.1-2.3,1.1c-1,0-1.7-0.4-2.2-1.1s-0.8-1.8-0.8-3.3
		c0-1.5,0.2-2.6,0.7-3.3s1.2-1.1,2.3-1.1c1,0,1.7,0.4,2.2,1.1S890.4,220.5,890.4,221.9z M886.2,221.9c0,1.1,0.1,1.8,0.3,2.3
		s0.5,0.7,0.9,0.7c0.4,0,0.7-0.2,0.9-0.7s0.3-1.2,0.3-2.2c0-1.1-0.1-1.8-0.3-2.3s-0.5-0.7-0.9-0.7c-0.4,0-0.7,0.2-0.9,0.7
		S886.2,220.9,886.2,221.9z"/>
</g>
<g class="st3">
	<path class="st4" d="M900.9,220.6h-1.6v5.7h-1v-5.7h-1.1v-0.4l1.1-0.4v-0.4c0-1.6,0.7-2.4,2.1-2.4c0.3,0,0.7,0.1,1.2,0.2l-0.3,0.8
		c-0.4-0.1-0.7-0.2-1-0.2c-0.4,0-0.6,0.1-0.8,0.4s-0.3,0.6-0.3,1.2v0.4h1.6V220.6z"/>
	<path class="st4" d="M906,226.2l-0.2-0.9h0c-0.3,0.4-0.6,0.7-1,0.8s-0.7,0.2-1.2,0.2c-0.6,0-1.1-0.2-1.5-0.5s-0.5-0.8-0.5-1.4
		c0-1.3,1-2,3.1-2l1.1,0V222c0-0.5-0.1-0.9-0.3-1.1s-0.6-0.4-1-0.4c-0.5,0-1.1,0.2-1.8,0.5l-0.3-0.7c0.3-0.2,0.7-0.3,1-0.4
		s0.8-0.1,1.1-0.1c0.8,0,1.3,0.2,1.7,0.5s0.6,0.9,0.6,1.6v4.4H906z M903.8,225.5c0.6,0,1.1-0.2,1.4-0.5s0.5-0.8,0.5-1.4v-0.6l-1,0
		c-0.8,0-1.3,0.1-1.7,0.4s-0.5,0.5-0.5,1c0,0.4,0.1,0.6,0.3,0.8S903.4,225.5,903.8,225.5z"/>
	<path class="st4" d="M911.3,226.3c-0.9,0-1.6-0.3-2.2-0.9s-0.8-1.4-0.8-2.4c0-1.1,0.3-1.9,0.8-2.5s1.3-0.9,2.2-0.9
		c0.3,0,0.6,0,0.9,0.1s0.6,0.1,0.7,0.2l-0.3,0.8c-0.2-0.1-0.4-0.2-0.7-0.2s-0.5-0.1-0.7-0.1c-1.3,0-2,0.8-2,2.5
		c0,0.8,0.2,1.4,0.5,1.8s0.8,0.6,1.4,0.6c0.5,0,1.1-0.1,1.6-0.3v0.9C912.5,226.2,912,226.3,911.3,226.3z"/>
	<path class="st4" d="M914.4,218.1c0-0.2,0.1-0.4,0.2-0.5s0.2-0.2,0.4-0.2c0.2,0,0.3,0.1,0.4,0.2s0.2,0.3,0.2,0.5s-0.1,0.4-0.2,0.5
		s-0.2,0.2-0.4,0.2c-0.2,0-0.3-0.1-0.4-0.2S914.4,218.3,914.4,218.1z M915.4,226.2h-1v-6.4h1V226.2z"/>
	<path class="st4" d="M918.5,226.2h-1v-9.1h1V226.2z"/>
	<path class="st4" d="M920.5,218.1c0-0.2,0.1-0.4,0.2-0.5s0.2-0.2,0.4-0.2c0.2,0,0.3,0.1,0.4,0.2s0.2,0.3,0.2,0.5s-0.1,0.4-0.2,0.5
		s-0.2,0.2-0.4,0.2c-0.2,0-0.3-0.1-0.4-0.2S920.5,218.3,920.5,218.1z M921.5,226.2h-1v-6.4h1V226.2z"/>
	<path class="st4" d="M927.9,225.4L927.9,225.4c-0.5,0.7-1.2,1-2.1,1c-0.8,0-1.5-0.3-2-0.9s-0.7-1.4-0.7-2.4s0.2-1.9,0.7-2.5
		s1.1-0.9,2-0.9c0.9,0,1.5,0.3,2,0.9h0.1l0-0.5l0-0.5v-2.6h1v9.1h-0.8L927.9,225.4z M926,225.5c0.7,0,1.1-0.2,1.4-0.5
		s0.4-0.9,0.4-1.7V223c0-0.9-0.2-1.6-0.5-1.9s-0.8-0.6-1.5-0.6c-0.6,0-1,0.2-1.3,0.7s-0.5,1.1-0.5,1.9c0,0.8,0.2,1.4,0.5,1.9
		S925.4,225.5,926,225.5z"/>
	<path class="st4" d="M934.9,226.2l-0.2-0.9h0c-0.3,0.4-0.6,0.7-1,0.8s-0.7,0.2-1.2,0.2c-0.6,0-1.1-0.2-1.5-0.5s-0.5-0.8-0.5-1.4
		c0-1.3,1-2,3.1-2l1.1,0V222c0-0.5-0.1-0.9-0.3-1.1s-0.6-0.4-1-0.4c-0.5,0-1.1,0.2-1.8,0.5l-0.3-0.7c0.3-0.2,0.7-0.3,1-0.4
		s0.8-0.1,1.1-0.1c0.8,0,1.3,0.2,1.7,0.5s0.6,0.9,0.6,1.6v4.4H934.9z M932.7,225.5c0.6,0,1.1-0.2,1.4-0.5s0.5-0.8,0.5-1.4v-0.6l-1,0
		c-0.8,0-1.3,0.1-1.7,0.4s-0.5,0.5-0.5,1c0,0.4,0.1,0.6,0.3,0.8S932.3,225.5,932.7,225.5z"/>
	<path class="st4" d="M942,225.4L942,225.4c-0.5,0.7-1.2,1-2.1,1c-0.8,0-1.5-0.3-2-0.9s-0.7-1.4-0.7-2.4s0.2-1.9,0.7-2.5
		s1.1-0.9,2-0.9c0.9,0,1.5,0.3,2,0.9h0.1l0-0.5l0-0.5v-2.6h1v9.1h-0.8L942,225.4z M940,225.5c0.7,0,1.1-0.2,1.4-0.5s0.4-0.9,0.4-1.7
		V223c0-0.9-0.2-1.6-0.5-1.9s-0.8-0.6-1.5-0.6c-0.6,0-1,0.2-1.3,0.7s-0.5,1.1-0.5,1.9c0,0.8,0.2,1.4,0.5,1.9S939.4,225.5,940,225.5z
		"/>
	<path class="st4" d="M947.7,226.3c-0.9,0-1.7-0.3-2.2-0.9s-0.8-1.4-0.8-2.4c0-1,0.3-1.9,0.8-2.5s1.2-0.9,2.1-0.9
		c0.8,0,1.4,0.3,1.9,0.8s0.7,1.2,0.7,2.1v0.6h-4.4c0,0.8,0.2,1.3,0.6,1.7s0.9,0.6,1.5,0.6c0.7,0,1.4-0.1,2.1-0.4v0.9
		c-0.3,0.1-0.7,0.3-1,0.3S948.1,226.3,947.7,226.3z M947.4,220.5c-0.5,0-0.9,0.2-1.2,0.5s-0.5,0.8-0.5,1.4h3.4
		c0-0.6-0.1-1.1-0.4-1.4S947.9,220.5,947.4,220.5z"/>
	<path class="st4" d="M955.8,224.5c0,0.6-0.2,1.1-0.7,1.4s-1.1,0.5-1.9,0.5c-0.9,0-1.5-0.1-2-0.4V225c0.3,0.2,0.6,0.3,1,0.4
		s0.7,0.1,1,0.1c0.5,0,0.9-0.1,1.2-0.2s0.4-0.4,0.4-0.7c0-0.2-0.1-0.5-0.3-0.6s-0.6-0.4-1.3-0.6c-0.6-0.2-1-0.4-1.3-0.6
		s-0.4-0.4-0.6-0.6s-0.2-0.5-0.2-0.8c0-0.5,0.2-0.9,0.6-1.2s1-0.5,1.8-0.5c0.7,0,1.4,0.1,2,0.4l-0.3,0.8c-0.6-0.3-1.2-0.4-1.8-0.4
		c-0.5,0-0.8,0.1-1,0.2s-0.4,0.3-0.4,0.6c0,0.2,0,0.3,0.1,0.4s0.2,0.2,0.4,0.3s0.6,0.3,1.1,0.5c0.8,0.3,1.3,0.6,1.5,0.8
		S955.8,224.1,955.8,224.5z"/>
</g>
</svg>
