<svg xmlns="http://www.w3.org/2000/svg" width="91.453" height="40.444" viewBox="0 0 91.453 40.444">
  <g id="Group_32" data-name="Group 32" transform="translate(-389.86 -13)">
    <path id="Path_1" data-name="Path 1" d="M112.6,90.829a5.143,5.143,0,1,1,0-10.282,5.382,5.382,0,0,1,3.736,1.509l-.665.632a4.384,4.384,0,0,0-3.071-1.2,4.2,4.2,0,1,0,0,8.405,4.388,4.388,0,0,0,3.052-1.244l.684.673A5.294,5.294,0,0,1,112.6,90.829Z" transform="translate(307.902 -37.45)" fill="#fff"/>
    <path id="Path_2" data-name="Path 2" d="M127.352,90.731h-1.017V88.592a4.815,4.815,0,0,1-4.193,2.3,5.174,5.174,0,1,1,0-10.348,4.669,4.669,0,0,1,4.193,2.322v-2.2h1.017Zm-9.4-5.031a4.079,4.079,0,0,0,4.193,4.217c5.708,0,5.708-8.413,0-8.413A4.062,4.062,0,0,0,117.948,85.7Z" transform="translate(308.626 -37.45)" fill="#fff"/>
    <path id="Path_3" data-name="Path 3" d="M130.012,82.476a3.607,3.607,0,0,1,3.4-1.928,4.013,4.013,0,0,1,2.2.6l-.457.83a3.292,3.292,0,0,0-1.743-.477,3.4,3.4,0,0,0-3.383,3.421v5.972h-1.017V80.652h.955Z" transform="translate(309.537 -37.45)" fill="#fff"/>
    <path id="Path_4" data-name="Path 4" d="M146.644,91.1h-1V88.887a5.131,5.131,0,1,1-4.255-7.972,4.562,4.562,0,0,1,4.255,2.353V75.691h1Zm-9.4-5.01a3.936,3.936,0,0,0,4.193,4.2,4.209,4.209,0,0,0,0-8.418A3.932,3.932,0,0,0,137.241,86.088Z" transform="translate(310.083 -37.817)" fill="#fff"/>
    <rect id="Rectangle_2" data-name="Rectangle 2" width="41.519" height="20.781" rx="9.662" transform="translate(413.877 13.051)" fill="#4496ec"/>
    <path id="Path_8" data-name="Path 8" d="M117.751,51.561a10.391,10.391,0,1,0,10.391,10.391A10.392,10.392,0,0,0,117.751,51.561Zm0,16.625a6.234,6.234,0,1,1,6.234-6.234A6.236,6.236,0,0,1,117.751,68.186Z" transform="translate(306.503 -38.561)" fill="#fff"/>
    <path id="Path_9" data-name="Path 9" d="M171.537,51.571V61.962a10.391,10.391,0,0,1-20.781,0V51.571h4.156v10.38a6.234,6.234,0,0,0,12.468,0V51.571Z" transform="translate(309.776 -38.56)" fill="#fff"/>
    <path id="Path_10" data-name="Path 10" d="M106.419,51.561l-8.4,18-1.3,2.779h-1.99l-1.3-2.779-8.4-18h4.587l6.1,13.087,6.1-13.087Z" transform="translate(304.82 -38.561)" fill="#fff"/>
  </g>
</svg>
