<svg xmlns="http://www.w3.org/2000/svg" width="105.72" height="48" viewBox="0 0 105.72 48"><g transform="translate(-30.64 -44)"><path d="M64.45,91.92a5.942,5.942,0,1,1,0-11.88,6.243,6.243,0,0,1,4.32,1.74l-.77.73a5.087,5.087,0,0,0-3.55-1.39,4.861,4.861,0,1,0,0,9.72,5.091,5.091,0,0,0,3.53-1.44l.79.78A6.111,6.111,0,0,1,64.45,91.92Z" fill="#1d1d1b"/><path d="M82.33,91.81H81.15V89.34A5.559,5.559,0,0,1,76.31,92a5.98,5.98,0,1,1,0-11.96,5.413,5.413,0,0,1,4.85,2.68V80.18h1.18V91.81ZM71.46,86a4.713,4.713,0,0,0,4.85,4.87c6.6,0,6.6-9.73,0-9.73A4.7,4.7,0,0,0,71.46,86Z" fill="#1d1d1b"/><path d="M86.46,82.27a4.16,4.16,0,0,1,3.94-2.23,4.72,4.72,0,0,1,2.54.69l-.53.96a3.841,3.841,0,0,0-2.02-.55,3.93,3.93,0,0,0-3.91,3.95V92H85.3V80.16h1.1Z" fill="#1d1d1b"/><path d="M106.32,91.81h-1.15V89.25a5.932,5.932,0,1,1-4.92-9.22,5.266,5.266,0,0,1,4.92,2.72V74h1.15V91.81ZM95.45,86.02a4.547,4.547,0,0,0,4.85,4.85,4.865,4.865,0,0,0,0-9.73A4.545,4.545,0,0,0,95.45,86.02Z" fill="#1d1d1b"/><path d="M94.4,68H70.78a12.035,12.035,0,0,1-12-12h0a12.035,12.035,0,0,1,12-12H94.4a12.035,12.035,0,0,1,12,12h0A12.035,12.035,0,0,1,94.4,68Z" fill="#45bfef"/><path d="M70.4,44A12.01,12.01,0,1,0,82.41,56.01,12.014,12.014,0,0,0,70.4,44Zm0,19.22a7.21,7.21,0,1,1,7.21-7.21A7.213,7.213,0,0,1,70.4,63.22Z" fill="#1d1d1b"/><path d="M136.36,44.01V56.02a12.01,12.01,0,1,1-24.02,0V44.01h4.8v12a7.21,7.21,0,1,0,14.42,0v-12Z" fill="#1d1d1b"/><path d="M55.35,44l-9.7,20.81-1.51,3.21h-2.3l-1.5-3.21L30.64,44h5.3L43,59.13,50.05,44Z" fill="#1d1d1b"/></g></svg>