<svg xmlns="http://www.w3.org/2000/svg" xmlns:xlink="http://www.w3.org/1999/xlink" viewBox="0 0 93.56 93.56"><defs><style>.cls-1{fill:url(#linear-gradient);}.cls-2{fill:#fff;}.cls-3,.cls-4{fill:none;stroke:#fff;}.cls-3{stroke-linecap:round;stroke-linejoin:round;}.cls-4{stroke-miterlimit:10;}</style><linearGradient id="linear-gradient" x1="8.12" y1="16.93" x2="82.3" y2="74.21" gradientUnits="userSpaceOnUse"><stop offset="0.07" stop-color="#54ade1"/><stop offset="1" stop-color="#2282bd"/></linearGradient></defs><title>testicon-multimoeda</title><g id="Layer_2" data-name="Layer 2"><g id="Layer_2-2" data-name="Layer 2"><circle class="cls-1" cx="46.78" cy="46.78" r="46.78"/><path class="cls-2" d="M35.68,49.94A7.63,7.63,0,0,1,33,49.22a7.06,7.06,0,0,1-2.08-1.5l.64-1a.67.67,0,0,1,.25-.22.72.72,0,0,1,.32-.08.9.9,0,0,1,.52.23c.2.15.43.33.72.53a7.13,7.13,0,0,0,1,.57,4.52,4.52,0,0,0,1.41.38l.45-6.43c-.57-.17-1.12-.37-1.67-.58a5.4,5.4,0,0,1-1.46-.84,3.61,3.61,0,0,1-1-1.3,4.22,4.22,0,0,1-.4-2A4.62,4.62,0,0,1,33,33.8a5.3,5.3,0,0,1,1.63-1.07,5.58,5.58,0,0,1,2.23-.42L37,30.54a.73.73,0,0,1,.18-.41.54.54,0,0,1,.42-.18h.8l-.17,2.4a6.18,6.18,0,0,1,2.2.65,7.29,7.29,0,0,1,1.64,1.2l-.52.8a.68.68,0,0,1-.56.36.83.83,0,0,1-.41-.15l-.6-.35c-.24-.13-.51-.27-.81-.4a4,4,0,0,0-1.06-.28L37.72,40c.58.17,1.16.37,1.72.58a6.19,6.19,0,0,1,1.53.81,3.85,3.85,0,0,1,1.09,1.25,3.78,3.78,0,0,1,.42,1.87,5.82,5.82,0,0,1-.36,2.05,5,5,0,0,1-1.06,1.69,5.48,5.48,0,0,1-4,1.64L36.9,52.1a.71.71,0,0,1-.19.4.54.54,0,0,1-.42.18H35.5Zm-2-13.11a2.28,2.28,0,0,0,.2,1,2.61,2.61,0,0,0,.57.76,4,4,0,0,0,.85.56,7.2,7.2,0,0,0,1,.44l.36-5.46a4.78,4.78,0,0,0-1.36.31,3.12,3.12,0,0,0-.94.61,2.24,2.24,0,0,0-.55.82A2.55,2.55,0,0,0,33.72,36.83Zm6.72,8a2.22,2.22,0,0,0-.23-1,2.32,2.32,0,0,0-.61-.75,3.86,3.86,0,0,0-.91-.55q-.52-.22-1.11-.42l-.41,6a4.43,4.43,0,0,0,1.39-.35,3.21,3.21,0,0,0,1-.69,2.88,2.88,0,0,0,.63-1A3.55,3.55,0,0,0,40.44,44.87Z"/><polyline class="cls-3" points="54.49 30.24 69.66 35.47 57.39 71.07 34.38 63.14"/><rect class="cls-4" x="23.9" y="22.49" width="27.59" height="37.66"/></g></g></svg>