<svg xmlns="http://www.w3.org/2000/svg" xmlns:xlink="http://www.w3.org/1999/xlink" viewBox="0 0 93.56 93.56"><defs><style>.cls-1{fill:url(#linear-gradient);}.cls-2{fill:none;stroke:#fff;stroke-miterlimit:10;}.cls-3{fill:#fff;}</style><linearGradient id="linear-gradient" x1="8.12" y1="16.93" x2="82.3" y2="74.21" gradientUnits="userSpaceOnUse"><stop offset="0.07" stop-color="#54ade1"/><stop offset="1" stop-color="#2282bd"/></linearGradient></defs><title>iconmelhor-cambio</title><g id="Layer_2" data-name="Layer 2"><g id="Layer_2-2" data-name="Layer 2"><circle class="cls-1" cx="46.78" cy="46.78" r="46.78"/><path class="cls-2" d="M67,35.11A23.38,23.38,0,0,0,23.42,45.54"/><path class="cls-3" d="M19,38.46a.51.51,0,0,1,.68.19l3.76,6.66,4.44-6.23a.51.51,0,0,1,.7-.12.5.5,0,0,1,.12.7l-4.9,6.87a.49.49,0,0,1-.43.21.53.53,0,0,1-.41-.25l-4.15-7.35a.52.52,0,0,1-.07-.27A.51.51,0,0,1,19,38.46Z"/><path class="cls-2" d="M26.51,58.45A23.38,23.38,0,0,0,70.13,48"/><path class="cls-3" d="M74.54,55.09a.5.5,0,0,1-.68-.19l-3.77-6.65-4.44,6.23a.51.51,0,0,1-.7.11.5.5,0,0,1-.11-.69L69.73,47a.51.51,0,0,1,.85,0l4.15,7.34a.45.45,0,0,1,.06.27A.45.45,0,0,1,74.54,55.09Z"/><path class="cls-3" d="M45.75,55.4a7.23,7.23,0,0,1-2.67-.72A7.36,7.36,0,0,1,41,53.19l.64-1a.6.6,0,0,1,.25-.22.62.62,0,0,1,.32-.09.87.87,0,0,1,.52.23c.2.16.44.33.72.53a7.11,7.11,0,0,0,1,.58,4.53,4.53,0,0,0,1.41.37l.45-6.43c-.57-.17-1.12-.36-1.67-.57a6,6,0,0,1-1.46-.84,3.91,3.91,0,0,1-1-1.3,4.25,4.25,0,0,1-.4-2,4.62,4.62,0,0,1,1.35-3.23,5.27,5.27,0,0,1,1.63-1.08A5.76,5.76,0,0,1,47,37.78L47.08,36a.8.8,0,0,1,.18-.41.56.56,0,0,1,.43-.19h.8l-.17,2.4a6.4,6.4,0,0,1,2.19.66,7.57,7.57,0,0,1,1.64,1.19l-.52.8a.66.66,0,0,1-.55.37.83.83,0,0,1-.42-.15l-.6-.36c-.24-.13-.51-.26-.81-.4a4.47,4.47,0,0,0-1-.28l-.4,5.86c.58.18,1.15.37,1.71.58A6.56,6.56,0,0,1,51,46.9a4,4,0,0,1,1.1,1.24A3.89,3.89,0,0,1,52.55,50a5.78,5.78,0,0,1-.36,2.05,4.94,4.94,0,0,1-1.06,1.69,5.34,5.34,0,0,1-1.71,1.19,5.59,5.59,0,0,1-2.3.45L47,57.56a.68.68,0,0,1-.19.41.55.55,0,0,1-.41.17h-.8Zm-2-13.11a2.39,2.39,0,0,0,.2,1,2.49,2.49,0,0,0,.57.76,3.71,3.71,0,0,0,.85.57,8.5,8.5,0,0,0,1.05.44l.37-5.47a4.76,4.76,0,0,0-1.37.32,3,3,0,0,0-.94.6,2.42,2.42,0,0,0-.55.82A2.55,2.55,0,0,0,43.79,42.29Zm6.72,8a2.25,2.25,0,0,0-.23-1,2.32,2.32,0,0,0-.61-.75,4.23,4.23,0,0,0-.91-.55,11.75,11.75,0,0,0-1.11-.42l-.41,6a4.56,4.56,0,0,0,1.4-.34,3.67,3.67,0,0,0,1-.7,3,3,0,0,0,.63-1A3.51,3.51,0,0,0,50.51,50.33Z"/></g></g></svg>